<?xml version="1.0"?>
<svg xmlns="http://www.w3.org/2000/svg" height="512px" viewBox="0 0 64 64" width="512px" class=""><g><g id="Glyph"><path d="m20 54h4v2h-4z" data-original="#000000" class="active-path" data-old_color="#000000" fill="#F49731"/><path d="m16 38a1.009 1.009 0 0 1 .359.066l11.641 4.478v-3.857l-12-4.616-12 4.616v3.857l11.641-4.478a1.009 1.009 0 0 1 .359-.066z" data-original="#000000" class="active-path" data-old_color="#000000" fill="#F49731"/><path d="m28 44.687-12-4.616-12 4.616v15.313h24zm-12 8.313a1 1 0 0 1 -1 1h-1.72l.69 2.758a1 1 0 0 1 -.97 1.242h-4a1 1 0 0 1 -.97-1.242l.69-2.758h-1.72a1 1 0 0 1 -1-1v-6a1 1 0 0 1 1-1h8a1 1 0 0 1 1 1zm8-1a2 2 0 0 1 2 2v3a1 1 0 0 1 -1 1h-6a1 1 0 0 1 -1-1v-3a2 2 0 0 1 2-2h2a4 4 0 1 1 4-4 4 4 0 0 1 -4 4z" data-original="#000000" class="active-path" data-old_color="#000000" fill="#F49731"/><path d="m10.781 54-.5 2h1.438l-.5-2z" data-original="#000000" class="active-path" data-old_color="#000000" fill="#F49731"/><path d="m8 48h6v4h-6z" data-original="#000000" class="active-path" data-old_color="#000000" fill="#F49731"/><circle cx="22" cy="48" r="2" data-original="#000000" class="active-path" data-old_color="#000000" fill="#F49731"/><path d="m40.06 9a9.041 9.041 0 0 0 -5.454-4.614 17.34 17.34 0 0 1 2.639 4.614z" data-original="#000000" class="active-path" data-old_color="#000000" fill="#F49731"/><path d="m33 15h2.757a8.352 8.352 0 0 0 0-4h-2.757z" data-original="#000000" class="active-path" data-old_color="#000000" fill="#F49731"/><path d="m33 17v3.408a16.176 16.176 0 0 0 2.081-3.408z" data-original="#000000" class="active-path" data-old_color="#000000" fill="#F49731"/><path d="m29.394 21.614a17.34 17.34 0 0 1 -2.639-4.614h-2.815a9.041 9.041 0 0 0 5.454 4.614z" data-original="#000000" class="active-path" data-old_color="#000000" fill="#F49731"/><path d="m31 17h-2.081a16.176 16.176 0 0 0 2.081 3.408z" data-original="#000000" class="active-path" data-old_color="#000000" fill="#F49731"/><path d="m28 13a8.843 8.843 0 0 0 .243 2h2.757v-4h-2.757a8.843 8.843 0 0 0 -.243 2z" data-original="#000000" class="active-path" data-old_color="#000000" fill="#F49731"/><path d="m31 5.592a16.176 16.176 0 0 0 -2.081 3.408h2.081z" data-original="#000000" class="active-path" data-old_color="#000000" fill="#F49731"/><path d="m33 9h2.081a16.176 16.176 0 0 0 -2.081-3.408z" data-original="#000000" class="active-path" data-old_color="#000000" fill="#F49731"/><path d="m23.94 9h2.815a17.34 17.34 0 0 1 2.639-4.614 9.041 9.041 0 0 0 -5.454 4.614z" data-original="#000000" class="active-path" data-old_color="#000000" fill="#F49731"/><path d="m23 13a8.971 8.971 0 0 0 .233 2h2.967a10.251 10.251 0 0 1 0-4h-2.967a8.971 8.971 0 0 0 -.233 2z" data-original="#000000" class="active-path" data-old_color="#000000" fill="#F49731"/><path d="m41 13a8.971 8.971 0 0 0 -.233-2h-2.967a10.251 10.251 0 0 1 0 4h2.964a8.971 8.971 0 0 0 .236-2z" data-original="#000000" class="active-path" data-old_color="#000000" fill="#F49731"/><path d="m37.245 17a17.34 17.34 0 0 1 -2.639 4.614 9.041 9.041 0 0 0 5.454-4.614z" data-original="#000000" class="active-path" data-old_color="#000000" fill="#F49731"/><path d="m54 40h2v2h-2z" data-original="#000000" class="active-path" data-old_color="#000000" fill="#F49731"/><path d="m48 48h6v4h-6z" data-original="#000000" class="active-path" data-old_color="#000000" fill="#F49731"/><path d="m42 60h18v-32h-18zm14-7a1 1 0 0 1 -1 1h-1.72l.69 2.758a1 1 0 0 1 -.97 1.242h-4a1 1 0 0 1 -.97-1.242l.69-2.758h-1.72a1 1 0 0 1 -1-1v-6a1 1 0 0 1 1-1h8a1 1 0 0 1 1 1zm-4-22a1 1 0 0 1 1-1h4a1 1 0 0 1 1 1v4a1 1 0 0 1 -1 1h-4a1 1 0 0 1 -1-1zm0 8a1 1 0 0 1 1-1h4a1 1 0 0 1 1 1v4a1 1 0 0 1 -1 1h-4a1 1 0 0 1 -1-1zm-8-8a1 1 0 0 1 1-1h4a1 1 0 0 1 1 1v4a1 1 0 0 1 -1 1h-4a1 1 0 0 1 -1-1zm0 8a1 1 0 0 1 1-1h4a1 1 0 0 1 1 1v4a1 1 0 0 1 -1 1h-4a1 1 0 0 1 -1-1z" data-original="#000000" class="active-path" data-old_color="#000000" fill="#F49731"/><path d="m54 32h2v2h-2z" data-original="#000000" class="active-path" data-old_color="#000000" fill="#F49731"/><path d="m46 40h2v2h-2z" data-original="#000000" class="active-path" data-old_color="#000000" fill="#F49731"/><path d="m40 46h-6v14h6zm-2 12h-2v-2h2zm0-4h-2v-2h2zm0-4h-2v-2h2z" data-original="#000000" class="active-path" data-old_color="#000000" fill="#F49731"/><path d="m46 32h2v2h-2z" data-original="#000000" class="active-path" data-old_color="#000000" fill="#F49731"/><path d="m50.781 54-.5 2h1.438l-.5-2z" data-original="#000000" class="active-path" data-old_color="#000000" fill="#F49731"/><path d="m48.706 19.293-1.414 1.414 3 3a1 1 0 0 0 1.414 0l3-3-1.414-1.414-1.292 1.294v-7.587a1 1 0 0 0 -1-1h-6v2h5v6.587z" data-original="#000000" class="active-path" data-old_color="#000000" fill="#F49731"/><path d="m15 13v17h2v-16h2v-2h-3a1 1 0 0 0 -1 1z" data-original="#000000" class="active-path" data-old_color="#000000" fill="#F49731"/></g></g> </svg>
